<svg xmlns="http://www.w3.org/2000/svg" viewBox="0 0 400 500" role="img" aria-label="Ilustración de un escritorio con monitor, editor de código y terminal">
  <rect width="400" height="500" fill="#141418"/>
  <rect x="40" y="90" width="320" height="200" fill="#0b0b0d" stroke="#33333c" stroke-width="4"/>
  <rect x="44" y="94" width="150" height="192" fill="#08080a"/>
  <g font-family="monospace" font-size="11"><text x="54" y="118" fill="#e10000">$ ls</text><text x="54" y="138" fill="#9a9aa4">index.html  style.css</text><text x="54" y="158" fill="#e10000">$ python3</text><text x="54" y="178" fill="#7ee0a4">&gt;&gt;&gt; 2**10</text><text x="54" y="198" fill="#fff">1024</text></g>
  <g fill="#33333c"><rect x="206" y="108" width="70" height="7"/><rect x="216" y="124" width="110" height="7"/><rect x="216" y="140" width="90" height="7"/><rect x="206" y="156" width="130" height="7"/><rect x="216" y="172" width="100" height="7"/></g>
  <rect x="206" y="196" width="50" height="7" fill="#e10000"/>
  <rect x="180" y="290" width="40" height="40" fill="#1c1c22"/><rect x="140" y="330" width="120" height="10" fill="#33333c"/>
  <rect x="60" y="370" width="280" height="14" fill="#1c1c22"/><rect x="60" y="384" width="280" height="4" fill="#e10000"/>
  <rect x="90" y="345" width="90" height="22" fill="#2b2b33"/>
</svg>
